<?xml version="1.0" encoding="UTF-8" standalone="no"?>
<!DOCTYPE svg PUBLIC "-//W3C//DTD SVG 1.1//EN" "http://www.w3.org/Graphics/SVG/1.1/DTD/svg11.dtd">
<!-- Created with Vectornator (http://vectornator.io/) -->
<svg height="100%" stroke-miterlimit="10" style="fill-rule:nonzero;clip-rule:evenodd;stroke-linecap:round;stroke-linejoin:round;" version="1.1" viewBox="0 0 500 500" width="100%" xml:space="preserve" xmlns="http://www.w3.org/2000/svg" xmlns:vectornator="http://vectornator.io" xmlns:xlink="http://www.w3.org/1999/xlink">

<g id="Untitled" vectornator:layerName="Untitled">
<g opacity="1">
<g opacity="1">
<g opacity="1">
<path d="M417.19 399.297C417.19 399.297 413.647 395.007 406.746 388.293C399.845 381.578 405.813 381.205 416.63 378.034C427.449 374.863 439.385 367.403 430.246 354.907C421.107 342.411 402.083 344.09 400.032 345.396" fill="none" opacity="1" stroke="#182e35" stroke-linecap="round" stroke-linejoin="round" stroke-width="2"/>
<path d="M413.087 400.975C413.087 400.975 413.46 397.245 417.19 397.431C420.92 397.618 421.107 402.28 421.107 402.28L413.087 400.975Z" fill="#ffffff" fill-rule="nonzero" opacity="1" stroke="none"/>
<path d="M413.087 400.975C413.087 400.975 413.46 397.245 417.19 397.431C420.92 397.618 421.107 402.28 421.107 402.28L413.087 400.975Z" fill="none" opacity="1" stroke="#182e35" stroke-linecap="round" stroke-linejoin="round" stroke-width="1"/>
<path d="M408.23 399.683C397.961 399.83 388.238 404.755 382.418 413.215C382.193 413.541 381.972 413.881 381.762 414.215C376.725 422.235 375.786 427.634 380.449 436.027C385.112 444.42 401.352 444.983 412.543 442.746C423.733 440.507 431.178 422.226 433.23 418.496C435.282 414.766 437.341 409.727 434.543 405.996C431.745 402.266 424.103 399.683 411.98 399.683C410.632 399.683 409.373 399.666 408.23 399.683Z" fill="#ffffff" fill-rule="nonzero" opacity="1" stroke="none"/>
<path d="M408.23 399.683C397.961 399.83 388.238 404.755 382.418 413.215C382.193 413.541 381.972 413.881 381.762 414.215C376.725 422.235 375.786 427.634 380.449 436.027C385.112 444.42 401.352 444.983 412.543 442.746C423.733 440.507 431.178 422.226 433.23 418.496C435.282 414.766 437.341 409.727 434.543 405.996C431.745 402.266 424.103 399.683 411.98 399.683C410.632 399.683 409.373 399.666 408.23 399.683Z" fill="none" opacity="1" stroke="#182e35" stroke-linecap="round" stroke-linejoin="round" stroke-width="1"/>
<path d="M435.855 409.527C434.165 410.422 431.627 412.169 428.574 415.527C422.979 421.681 417.924 437.723 401.324 439.402C385.263 441.026 378.644 431.637 378.23 431.027C378.73 432.598 379.456 434.24 380.449 436.027C385.112 444.421 401.351 444.983 412.543 442.746C423.733 440.508 431.179 422.226 433.23 418.496C434.686 415.85 436.131 412.556 435.855 409.527Z" fill="#ffffff" fill-rule="nonzero" opacity="1" stroke="none"/>
<path d="M435.855 409.527C434.165 410.422 431.627 412.169 428.574 415.527C422.979 421.681 417.924 437.723 401.324 439.402C385.263 441.026 378.644 431.637 378.23 431.027C378.73 432.598 379.456 434.24 380.449 436.027C385.112 444.421 401.351 444.983 412.543 442.746C423.733 440.508 431.179 422.226 433.23 418.496C434.686 415.85 436.131 412.556 435.855 409.527Z" fill="none" opacity="1" stroke="#182e35" stroke-linecap="round" stroke-linejoin="round" stroke-width="1"/>
</g>
<path d="M363.047 395.725L425.897 315.946L425.897 307.829L362.352 380.882L363.047 395.725Z" fill="#dcdcdc" fill-rule="nonzero" opacity="1" stroke="none"/>
<path d="M363.047 395.725L425.897 315.946L425.897 307.829L362.352 380.882L363.047 395.725Z" fill="none" opacity="1" stroke="#182e35" stroke-linecap="round" stroke-linejoin="round" stroke-width="1"/>
<path d="M144.582 349.342L144.995 361.289L363.047 395.726L363.279 382.506L144.582 349.342Z" fill="#182e35" fill-rule="nonzero" opacity="1" stroke="none"/>
<path d="M144.582 349.342L144.995 361.289L363.047 395.726L363.279 382.506L144.582 349.342Z" fill="none" opacity="1" stroke="#182e35" stroke-linecap="round" stroke-linejoin="round" stroke-width="1"/>
<path d="M235.372 253.065L138.587 307.092L364.971 334.603L429.605 269.969L235.372 253.065Z" fill="#ffffff" fill-rule="nonzero" opacity="1" stroke="none"/>
<path d="M235.372 253.065L138.587 307.092L364.971 334.603L429.605 269.969L235.372 253.065Z" fill="none" opacity="1" stroke="#182e35" stroke-linecap="round" stroke-linejoin="round" stroke-width="1"/>
<g opacity="1">
<path d="M242.664 264.335C242.664 264.335 208.193 295.16 208.524 297.481C208.855 299.801 210.844 303.446 216.147 305.436C221.451 307.424 293.376 315.379 299.011 315.71C304.646 316.042 337.46 310.075 348.067 302.783C358.673 295.491 358.673 297.812 355.028 290.189C351.381 282.564 331.495 273.947 331.495 273.947L242.664 264.335Z" fill="#dcdcdc" fill-rule="nonzero" opacity="1" stroke="none"/>
<path d="M242.664 264.335C242.664 264.335 208.193 295.16 208.524 297.481C208.855 299.801 210.844 303.446 216.147 305.436C221.451 307.424 293.376 315.379 299.011 315.71C304.646 316.042 337.46 310.075 348.067 302.783C358.673 295.491 358.673 297.812 355.028 290.189C351.381 282.564 331.495 273.947 331.495 273.947L242.664 264.335Z" fill="none" opacity="1" stroke="#182e35" stroke-linecap="round" stroke-linejoin="round" stroke-width="1"/>
<path d="M234.377 261.683C234.377 261.683 241.338 280.907 269.843 283.89C298.349 286.873 311.275 276.929 311.275 276.929L234.377 261.683Z" fill="#182e35" fill-rule="nonzero" opacity="1" stroke="none"/>
<path d="M234.377 261.683C234.377 261.683 241.338 280.907 269.843 283.89C298.349 286.873 311.275 276.929 311.275 276.929L234.377 261.683Z" fill="none" opacity="1" stroke="#182e35" stroke-linecap="round" stroke-linejoin="round" stroke-width="1"/>
<path d="M399.774 226.549C399.774 226.549 396.128 265.992 395.133 267.65C394.139 269.307 390.825 270.301 388.173 270.964C385.522 271.627 337.461 281.903 337.461 281.903L337.792 272.29L399.774 226.549Z" fill="#b9b9b9" fill-rule="nonzero" opacity="1" stroke="none"/>
<path d="M399.774 226.549C399.774 226.549 396.128 265.992 395.133 267.65C394.139 269.307 390.825 270.301 388.173 270.964C385.522 271.627 337.461 281.903 337.461 281.903L337.792 272.29L399.774 226.549Z" fill="none" opacity="1" stroke="#182e35" stroke-linecap="round" stroke-linejoin="round" stroke-width="1"/>
<path d="M337.46 281.902C337.46 281.902 195.928 264.666 178.692 263.008L178.361 255.053L337.791 272.29L337.46 281.902Z" fill="#182e35" fill-rule="nonzero" opacity="1" stroke="none"/>
<path d="M337.46 281.902C337.46 281.902 195.928 264.666 178.692 263.008L178.361 255.053L337.791 272.29L337.46 281.902Z" fill="none" opacity="1" stroke="#182e35" stroke-linecap="round" stroke-linejoin="round" stroke-width="1"/>
<path d="M161.788 51.5398L145.215 252.402C145.215 252.402 191.288 260.357 241.669 266.986C292.051 273.615 366.297 274.609 366.297 274.609L388.504 46.2368C388.504 46.2368 299.011 41.9278 259.899 43.2528" fill="#e9e9e9" fill-rule="nonzero" opacity="1" stroke="none"/>
<g transform="matrix(0.434278 0.0317674 -0.0285667 0.390522 167.45 67.8646)">
<clipPath id="cp">
<path d="M16 0L449 0L449 385L16 385Z"/>
</clipPath>
<g clip-path="url(#cp)">
<use opacity="1" xlink:href="#Image"/>
</g>
</g>
<path d="M161.788 51.5398L145.215 252.402C145.215 252.402 191.288 260.357 241.669 266.986C292.051 273.615 366.297 274.609 366.297 274.609L388.504 46.2368C388.504 46.2368 299.011 41.9278 259.899 43.2528C220.788 44.5798 161.788 51.5398 161.788 51.5398Z" fill="none" opacity="1" stroke="#182e35" stroke-linecap="round" stroke-linejoin="round" stroke-width="1"/>
<path d="M178.03 74.0789C178.03 74.0789 164.44 186.443 164.772 218.594L345.083 232.515C345.083 232.515 354.364 90.9829 357.016 72.4219L259.237 71.0959L178.03 74.0789Z" fill="none" opacity="1" stroke="#182e35" stroke-linecap="round" stroke-linejoin="round" stroke-width="1"/>
<path d="M178.03 74.0789C178.03 74.0789 164.44 186.442 164.772 218.594L168.993 218.92C168.92 213.794 169 201.281 170.406 175.504C172.395 139.044 181.344 77.7249 181.344 77.7249C181.344 77.7249 218.468 75.0729 258.242 74.0789C295.566 73.1459 350.106 74.8389 356.688 75.0519C356.806 74.0169 356.916 73.1209 357.016 72.4219L259.237 71.0959L178.03 74.0789Z" fill="#182e35" fill-rule="nonzero" opacity="1" stroke="none"/>
<path d="M178.03 74.0789C178.03 74.0789 164.44 186.442 164.772 218.594L168.993 218.92C168.92 213.794 169 201.281 170.406 175.504C172.395 139.044 181.344 77.7249 181.344 77.7249C181.344 77.7249 218.468 75.0729 258.242 74.0789C295.566 73.1459 350.106 74.8389 356.688 75.0519C356.806 74.0169 356.916 73.1209 357.016 72.4219L259.237 71.0959L178.03 74.0789Z" fill="none" opacity="1" stroke="#182e35" stroke-linecap="round" stroke-linejoin="round" stroke-width="1"/>
<path d="M313.595 260.523C313.595 268.486 307.437 274.941 299.84 274.941C292.243 274.941 286.085 268.486 286.085 260.523C286.085 252.559 292.243 246.104 299.84 246.104C307.437 246.104 313.595 252.559 313.595 260.523" fill="#e9e9e9" fill-rule="nonzero" opacity="1" stroke="none"/>
<path d="M313.595 260.523C313.595 268.486 307.437 274.941 299.84 274.941C292.243 274.941 286.085 268.486 286.085 260.523C286.085 252.559 292.243 246.104 299.84 246.104C307.437 246.104 313.595 252.559 313.595 260.523Z" fill="none" opacity="1" stroke="#182e35" stroke-linecap="round" stroke-linejoin="round" stroke-width="1"/>
<path d="M308.623 264.666C308.623 266.68 306.991 268.312 304.977 268.312C302.964 268.312 301.331 266.68 301.331 264.666C301.331 262.652 302.964 261.02 304.977 261.02C306.991 261.02 308.623 262.652 308.623 264.666" fill="#e9e9e9" fill-rule="nonzero" opacity="1" stroke="none"/>
<path d="M308.623 264.666C308.623 266.68 306.991 268.312 304.977 268.312C302.964 268.312 301.331 266.68 301.331 264.666C301.331 262.652 302.964 261.02 304.977 261.02C306.991 261.02 308.623 262.652 308.623 264.666Z" fill="none" opacity="1" stroke="#182e35" stroke-linecap="round" stroke-linejoin="round" stroke-width="1"/>
<path d="M334.477 262.346C334.477 264.177 332.994 265.66 331.163 265.66C329.332 265.66 327.848 264.177 327.848 262.346C327.848 260.516 329.332 259.032 331.163 259.032C332.994 259.032 334.477 260.516 334.477 262.346" fill="#e9e9e9" fill-rule="nonzero" opacity="1" stroke="none"/>
<path d="M334.477 262.346C334.477 264.177 332.994 265.66 331.163 265.66C329.332 265.66 327.848 264.177 327.848 262.346C327.848 260.516 329.332 259.032 331.163 259.032C332.994 259.032 334.477 260.516 334.477 262.346Z" fill="none" opacity="1" stroke="#182e35" stroke-linecap="round" stroke-linejoin="round" stroke-width="1"/>
<path d="M346.741 264.003C346.741 265.834 345.257 267.317 343.426 267.317C341.595 267.317 340.111 265.834 340.111 264.003C340.111 262.173 341.595 260.689 343.426 260.689C345.257 260.689 346.741 262.173 346.741 264.003" fill="#e9e9e9" fill-rule="nonzero" opacity="1" stroke="none"/>
<path d="M346.741 264.003C346.741 265.834 345.257 267.317 343.426 267.317C341.595 267.317 340.111 265.834 340.111 264.003C340.111 262.173 341.595 260.689 343.426 260.689C345.257 260.689 346.741 262.173 346.741 264.003Z" fill="none" opacity="1" stroke="#182e35" stroke-linecap="round" stroke-linejoin="round" stroke-width="1"/>
<path d="M388.504 46.2366L398.116 70.4326L374.583 274.61L366.297 274.61L388.504 46.2366Z" fill="#ffffff" fill-rule="nonzero" opacity="1" stroke="none"/>
<path d="M388.504 46.2366L398.116 70.4326L374.583 274.61L366.297 274.61L388.504 46.2366Z" fill="none" opacity="1" stroke="#182e35" stroke-linecap="round" stroke-linejoin="round" stroke-width="1"/>
<path d="M393.808 108.882L418.998 133.41L411.375 221.908C411.375 221.908 402.094 228.869 391.157 241.133C380.218 253.397 376.241 258.037 376.241 258.037L393.808 108.882Z" fill="#ffffff" fill-rule="nonzero" opacity="1" stroke="none"/>
<path d="M393.808 108.882L418.998 133.41L411.375 221.908C411.375 221.908 402.094 228.869 391.157 241.133C380.218 253.397 376.241 258.037 376.241 258.037L393.808 108.882Z" fill="none" opacity="1" stroke="#182e35" stroke-linecap="round" stroke-linejoin="round" stroke-width="1"/>
<path d="M364.971 334.603L364.151 382.807L428.942 306.76L429.605 269.969L364.971 334.603Z" fill="#ffffff" fill-rule="nonzero" opacity="1" stroke="none"/>
<path d="M364.971 334.603L364.151 382.807L428.942 306.76L429.605 269.969L364.971 334.603Z" fill="none" opacity="1" stroke="#182e35" stroke-linecap="round" stroke-linejoin="round" stroke-width="1"/>
<path d="M364.151 382.807L139.913 349.187L138.587 307.092L364.971 334.603L364.151 382.807Z" fill="#e9e9e9" fill-rule="nonzero" opacity="1" stroke="none"/>
<path d="M364.151 382.807L139.913 349.187L138.587 307.092L364.971 334.603L364.151 382.807Z" fill="none" opacity="1" stroke="#182e35" stroke-linecap="round" stroke-linejoin="round" stroke-width="1"/>
<path d="M155.605 326.035L155.805 333.211L162.98 334.407L163.18 327.431L155.605 326.035Z" fill="#5ae4a7" fill-rule="nonzero" opacity="1" stroke="none"/>
<path d="M155.605 326.035L155.805 333.211L162.98 334.407L163.18 327.431L155.605 326.035Z" fill="#5ae4a7" fill-rule="nonzero" opacity="1" stroke="#182e35" stroke-linecap="round" stroke-linejoin="round" stroke-width="1"/>
<path d="M260.46 339.283L211.923 332.799L211.611 329.929L260.846 336.308L260.46 339.283Z" fill="#182e35" fill-rule="nonzero" opacity="1" stroke="none"/>
<path d="M260.46 339.283L211.923 332.799L211.611 329.929L260.846 336.308L260.46 339.283Z" fill="none" opacity="1" stroke="#182e35" stroke-linecap="round" stroke-linejoin="round" stroke-width="1"/>
<path d="M350.754 350.844L329.609 348.067L329.812 345.453L314.313 343.163L311.133 345.78L271.227 340.679L271.607 337.702L310.228 342.639L313.435 340.001L331.795 343.156L331.597 345.724L351.145 347.869L350.754 350.844Z" fill="#182e35" fill-rule="nonzero" opacity="1" stroke="none"/>
<path d="M350.754 350.844L329.609 348.067L329.812 345.453L314.313 343.163L311.133 345.78L271.227 340.679L271.607 337.702L310.228 342.639L313.435 340.001L331.795 343.156L331.597 345.724L351.145 347.869L350.754 350.844Z" fill="none" opacity="1" stroke="#182e35" stroke-linecap="round" stroke-linejoin="round" stroke-width="1"/>
<path d="M294.14 338.493L305.02 339.426C305.02 339.426 303.797 342.074 303.492 342.074C303.186 342.074 293.1 341.667 293.1 341.667L294.14 338.493Z" fill="#ffffff" fill-rule="nonzero" opacity="1" stroke="none"/>
<path d="M294.14 338.493L305.02 339.426C305.02 339.426 303.797 342.074 303.492 342.074C303.186 342.074 293.1 341.667 293.1 341.667L294.14 338.493Z" fill="none" opacity="1" stroke="#182e35" stroke-linecap="round" stroke-linejoin="round" stroke-width="1"/>
<path d="M305.02 339.426L308.79 337.592L307.974 339.731L303.492 342.074L305.02 339.426Z" fill="#ffffff" fill-rule="nonzero" opacity="1" stroke="none"/>
<path d="M305.02 339.426L308.79 337.592L307.974 339.731L303.492 342.074L305.02 339.426Z" fill="none" opacity="1" stroke="#182e35" stroke-linecap="round" stroke-linejoin="round" stroke-width="1"/>
<path d="M308.789 337.592L295.545 335.962C295.545 335.962 294.729 334.027 293.304 333.211C291.877 332.396 289.84 332.193 288.006 335.452L287.395 337.082L294.14 338.493L305.019 339.426L308.789 337.592Z" fill="#ffffff" fill-rule="nonzero" opacity="1" stroke="none"/>
<path d="M308.789 337.592L295.545 335.962C295.545 335.962 294.729 334.027 293.304 333.211C291.877 332.396 289.84 332.193 288.006 335.452L287.395 337.082L294.14 338.493L305.019 339.426L308.789 337.592Z" fill="none" opacity="1" stroke="#182e35" stroke-linecap="round" stroke-linejoin="round" stroke-width="1"/>
<path d="M294.14 338.493C294.14 340.75 292.623 342.58 290.751 342.58C288.88 342.58 287.363 340.75 287.363 338.493C287.363 336.236 288.88 334.407 290.751 334.407C292.623 334.407 294.14 336.236 294.14 338.493" fill="#ffffff" fill-rule="nonzero" opacity="1" stroke="none"/>
<path d="M294.14 338.493C294.14 340.75 292.623 342.58 290.751 342.58C288.88 342.58 287.363 340.75 287.363 338.493C287.363 336.236 288.88 334.407 290.751 334.407C292.623 334.407 294.14 336.236 294.14 338.493Z" fill="none" opacity="1" stroke="#182e35" stroke-linecap="round" stroke-linejoin="round" stroke-width="1"/>
<path d="M310.974 347.177L310.974 356.763L313.733 344.999" fill="none" opacity="1" stroke="#182e35" stroke-linecap="round" stroke-linejoin="round" stroke-width="1"/>
<path d="M310.974 356.763L331.743 359.813L331.887 349.501" fill="none" opacity="1" stroke="#182e35" stroke-linecap="round" stroke-linejoin="round" stroke-width="1"/>
<path d="M331.887 342.529L332.033 337.882" fill="none" opacity="1" stroke="#182e35" stroke-linecap="round" stroke-linejoin="round" stroke-width="1"/>
<path d="M310.228 342.639L310.248 335.558" fill="none" opacity="1" stroke="#182e35" stroke-linecap="round" stroke-linejoin="round" stroke-width="1"/>
<path d="M265.369 329.459L266.096 354.584" fill="#ffffff" fill-rule="nonzero" opacity="1" stroke="none"/>
<path d="M265.369 329.459L266.096 354.584" fill="none" opacity="1" stroke="#182e35" stroke-linecap="round" stroke-linejoin="round" stroke-width="1"/>
<path d="M281.926 353.277L309.23 356.762" fill="none" opacity="1" stroke="#182e35" stroke-linecap="round" stroke-linejoin="round" stroke-width="1"/>
<path d="M281.491 343.691L281.345 351.969" fill="none" opacity="1" stroke="#182e35" stroke-linecap="round" stroke-linejoin="round" stroke-width="1"/>
<path d="M208.873 328.151L209.6 340.351L263.482 348.194L263.336 335.267L208.873 328.151Z" fill="none" opacity="1" stroke="#182e35" stroke-linecap="round" stroke-linejoin="round" stroke-width="1"/>
<path d="M248.019 342.946L254.172 343.865L254.172 347.538L248.019 346.803L248.019 342.946Z" fill="#ffffff" fill-rule="nonzero" opacity="1" stroke="none"/>
<path d="M248.019 342.946L254.172 343.865L254.172 347.538L248.019 346.803L248.019 342.946Z" fill="none" opacity="1" stroke="#182e35" stroke-linecap="round" stroke-linejoin="round" stroke-width="1"/>
<path d="M254.172 343.865L255.917 342.395L255.917 345.793L254.172 347.538L254.172 343.865Z" fill="#ffffff" fill-rule="nonzero" opacity="1" stroke="none"/>
<path d="M254.172 343.865L255.917 342.395L255.917 345.793L254.172 347.538L254.172 343.865Z" fill="none" opacity="1" stroke="#182e35" stroke-linecap="round" stroke-linejoin="round" stroke-width="1"/>
<path d="M255.916 342.395L249.764 341.569L248.019 342.946L254.171 343.865L255.916 342.395Z" fill="#ffffff" fill-rule="nonzero" opacity="1" stroke="none"/>
<path d="M255.916 342.395L249.764 341.569L248.019 342.946L254.171 343.865L255.916 342.395Z" fill="none" opacity="1" stroke="#182e35" stroke-linecap="round" stroke-linejoin="round" stroke-width="1"/>
<path d="M206.967 356.763L204.88 320.817L355.626 340.53L355.162 377.636" fill="none" opacity="1" stroke="#182e35" stroke-linecap="round" stroke-linejoin="round" stroke-width="1"/>
<path d="M353.771 366.504L207.2 346.095" fill="#ffffff" fill-rule="nonzero" opacity="1" stroke="none"/>
<path d="M353.771 366.504L207.2 346.095" fill="none" opacity="1" stroke="#182e35" stroke-linecap="round" stroke-linejoin="round" stroke-width="1"/>
<path d="M202.793 345.399L141.103 336.354" fill="#ffffff" fill-rule="nonzero" opacity="1" stroke="none"/>
<path d="M202.793 345.399L141.103 336.354" fill="none" opacity="1" stroke="#182e35" stroke-linecap="round" stroke-linejoin="round" stroke-width="1"/>
</g>
<path d="M125.299 354.653L376.67 392.124L342.946 447.394L64.0955 396.496L125.299 354.653Z" fill="#ffffff" fill-rule="nonzero" opacity="1" stroke="none"/>
<path d="M125.299 354.653L376.67 392.124L342.946 447.394L64.0955 396.496L125.299 354.653Z" fill="none" opacity="1" stroke="#182e35" stroke-linecap="round" stroke-linejoin="round" stroke-width="1"/>
<path d="M342.945 447.394L343.642 457L377.864 399.304L376.669 392.123L342.945 447.394Z" fill="#ffffff" fill-rule="nonzero" opacity="1" stroke="none"/>
<path d="M342.945 447.394L343.642 457L377.864 399.304L376.669 392.123L342.945 447.394Z" fill="none" opacity="1" stroke="#182e35" stroke-linecap="round" stroke-linejoin="round" stroke-width="1"/>
<path d="M342.945 447.394L64.0954 396.496L64.4174 404.429L343.642 457L342.945 447.394Z" fill="#e9e9e9" fill-rule="nonzero" opacity="1" stroke="none"/>
<path d="M342.945 447.394L64.0954 396.496L64.4174 404.429L343.642 457L342.945 447.394Z" fill="none" opacity="1" stroke="#182e35" stroke-linecap="round" stroke-linejoin="round" stroke-width="1"/>
<path d="M314.913 395.555L288.713 427.955L288.713 431.755L339.513 441.555L360.313 406.955L359.113 402.555L314.913 395.555Z" fill="#dcdcdc" fill-rule="nonzero" opacity="1" stroke="none"/>
<path d="M314.913 395.555L288.713 427.955L288.713 431.755L339.513 441.555L360.313 406.955L359.113 402.555L314.913 395.555Z" fill="none" opacity="1" stroke="#182e35" stroke-linecap="round" stroke-linejoin="round" stroke-width="1"/>
<path d="M288.713 427.956L338.913 436.355L359.113 402.556L314.913 395.556L288.713 427.956Z" fill="#dcdcdc" fill-rule="nonzero" opacity="1" stroke="none"/>
<path d="M288.713 427.956L338.913 436.355L359.113 402.556L314.913 395.556L288.713 427.956Z" fill="none" opacity="1" stroke="#182e35" stroke-linecap="round" stroke-linejoin="round" stroke-width="1"/>
<path d="M272.713 389.555L261.913 401.755L260.198 405.481L296.313 411.156L305.113 398.355L304.513 394.755L272.713 389.555Z" fill="#dcdcdc" fill-rule="nonzero" opacity="1" stroke="none"/>
<path d="M272.713 389.555L261.913 401.755L260.198 405.481L296.313 411.156L305.113 398.355L304.513 394.755L272.713 389.555Z" fill="none" opacity="1" stroke="#182e35" stroke-linecap="round" stroke-linejoin="round" stroke-width="1"/>
<path d="M281.313 381.155L276.713 385.155L274.913 388.756L307.937 394.209L312.713 389.756L311.313 386.155L281.313 381.155Z" fill="#dcdcdc" fill-rule="nonzero" opacity="1" stroke="none"/>
<path d="M281.313 381.155L276.713 385.155L274.913 388.756L307.937 394.209L312.713 389.756L311.313 386.155L281.313 381.155Z" fill="none" opacity="1" stroke="#182e35" stroke-linecap="round" stroke-linejoin="round" stroke-width="1"/>
<path d="M272.513 383.956L267.513 388.556L224.113 380.956L225.913 377.355L229.913 373.556L269.313 379.355L272.513 383.956Z" fill="#dcdcdc" fill-rule="nonzero" opacity="1" stroke="none"/>
<path d="M272.513 383.956L267.513 388.556L224.113 380.956L225.913 377.355L229.913 373.556L269.313 379.355L272.513 383.956Z" fill="none" opacity="1" stroke="#182e35" stroke-linecap="round" stroke-linejoin="round" stroke-width="1"/>
<path d="M223.113 375.555L218.113 381.355L177.113 374.555L178.713 369.155L183.913 366.355L221.113 371.955L223.113 375.555Z" fill="#dcdcdc" fill-rule="nonzero" opacity="1" stroke="none"/>
<path d="M223.113 375.555L218.113 381.355L177.113 374.555L178.713 369.155L183.913 366.355L221.113 371.955L223.113 375.555Z" fill="none" opacity="1" stroke="#182e35" stroke-linecap="round" stroke-linejoin="round" stroke-width="1"/>
<path d="M176.313 367.956L169.313 373.756L131.713 366.756L133.313 361.556L137.913 358.556L174.513 364.556L176.313 367.956Z" fill="#dcdcdc" fill-rule="nonzero" opacity="1" stroke="none"/>
<path d="M176.313 367.956L169.313 373.756L131.713 366.756L133.313 361.556L137.913 358.556L174.513 364.556L176.313 367.956Z" fill="none" opacity="1" stroke="#182e35" stroke-linecap="round" stroke-linejoin="round" stroke-width="1"/>
<path d="M261.913 388.756L107.312 363.956L79.7117 383.556L79.3117 385.356L73.3117 389.556L72.1117 394.155L86.8917 396.867L94.7117 392.356L100.713 393.155L97.5127 399.155L206.913 418.756L213.313 412.956L222.513 414.156L218.513 420.956L237.913 424.756L265.508 393.271L261.913 388.756Z" fill="#dcdcdc" fill-rule="nonzero" opacity="1" stroke="none"/>
<path d="M261.913 388.756L107.312 363.956L79.7117 383.556L79.3117 385.356L73.3117 389.556L72.1117 394.155L86.8917 396.867L94.7117 392.356L100.713 393.155L97.5127 399.155L206.913 418.756L213.313 412.956L222.513 414.156L218.513 420.956L237.913 424.756L265.508 393.271L261.913 388.756Z" fill="none" opacity="1" stroke="#182e35" stroke-linecap="round" stroke-linejoin="round" stroke-width="1"/>
<path d="M257.819 394.975L99.632 369.441L93.715 373.489L230.728 395.91L224.033 402.292L247.699 405.873L257.819 394.975Z" fill="#ffffff" fill-rule="nonzero" opacity="1" stroke="none"/>
<path d="M257.819 394.975L99.632 369.441L93.715 373.489L230.728 395.91L224.033 402.292L247.699 405.873L257.819 394.975Z" fill="none" opacity="1" stroke="#182e35" stroke-linecap="round" stroke-linejoin="round" stroke-width="1"/>
<path d="M225.746 397L220.919 401.671L107.261 382.364L112.244 378.628L225.746 397Z" fill="#ffffff" fill-rule="nonzero" opacity="1" stroke="none"/>
<path d="M225.746 397L220.919 401.671L107.261 382.364L112.244 378.628L225.746 397Z" fill="none" opacity="1" stroke="#182e35" stroke-linecap="round" stroke-linejoin="round" stroke-width="1"/>
<path d="M109.908 385.011L104.458 388.281L209.865 406.031L214.535 402.761L109.908 385.011Z" fill="#ffffff" fill-rule="nonzero" opacity="1" stroke="none"/>
<path d="M109.908 385.011L104.458 388.281L209.865 406.031L214.535 402.761L109.908 385.011Z" fill="none" opacity="1" stroke="#182e35" stroke-linecap="round" stroke-linejoin="round" stroke-width="1"/>
<path d="M197.409 406.652L192.738 410.233L205.972 412.881L210.176 408.988L197.409 406.652Z" fill="#ffffff" fill-rule="nonzero" opacity="1" stroke="none"/>
<path d="M197.409 406.652L192.738 410.233L205.972 412.881L210.176 408.988L197.409 406.652Z" fill="none" opacity="1" stroke="#182e35" stroke-linecap="round" stroke-linejoin="round" stroke-width="1"/>
<path d="M218.272 402.916L213.29 406.809L230.105 409.144L234.309 405.407L217.026 403.071" fill="#ffffff" fill-rule="nonzero" opacity="1" stroke="none"/>
<path d="M218.272 402.916L213.29 406.809L230.105 409.144L234.309 405.407L217.026 403.071" fill="none" opacity="1" stroke="#182e35" stroke-linecap="round" stroke-linejoin="round" stroke-width="1"/>
<path d="M238.046 406.342L233.687 410.234L241.316 411.168L245.208 407.587L238.046 406.342Z" fill="#ffffff" fill-rule="nonzero" opacity="1" stroke="none"/>
<path d="M238.046 406.342L233.687 410.234L241.316 411.168L245.208 407.587L238.046 406.342Z" fill="none" opacity="1" stroke="#182e35" stroke-linecap="round" stroke-linejoin="round" stroke-width="1"/>
<path d="M240.069 414.282L226.524 411.635L222.476 415.216L236.177 417.863L240.069 414.282Z" fill="#ffffff" fill-rule="nonzero" opacity="1" stroke="none"/>
<path d="M240.069 414.282L226.524 411.635L222.476 415.216L236.177 417.863L240.069 414.282Z" fill="none" opacity="1" stroke="#182e35" stroke-linecap="round" stroke-linejoin="round" stroke-width="1"/>
<path d="M192.583 406.342L188.223 410.078L115.98 396.689L120.807 393.731L192.583 406.342Z" fill="#ffffff" fill-rule="nonzero" opacity="1" stroke="none"/>
<path d="M192.583 406.342L188.223 410.078L115.98 396.689L120.807 393.731L192.583 406.342Z" fill="none" opacity="1" stroke="#182e35" stroke-linecap="round" stroke-linejoin="round" stroke-width="1"/>
<path d="M116.447 393.107L110.842 395.753L100.566 394.197L105.548 390.927L116.447 393.107Z" fill="#ffffff" fill-rule="nonzero" opacity="1" stroke="none"/>
<path d="M116.447 393.107L110.842 395.753L100.566 394.197L105.548 390.927L116.447 393.107Z" fill="none" opacity="1" stroke="#182e35" stroke-linecap="round" stroke-linejoin="round" stroke-width="1"/>
<path d="M105.704 384.077L100.722 387.035L79.7117 383.556L85.3077 380.34L105.704 384.077Z" fill="#ffffff" fill-rule="nonzero" opacity="1" stroke="none"/>
<path d="M105.704 384.077L100.722 387.035L79.7117 383.556L85.3077 380.34L105.704 384.077Z" fill="none" opacity="1" stroke="#182e35" stroke-linecap="round" stroke-linejoin="round" stroke-width="1"/>
<path d="M87.4874 378.16L103.524 380.651L108.662 377.848L91.8464 374.89L87.4874 378.16Z" fill="#ffffff" fill-rule="nonzero" opacity="1" stroke="none"/>
<path d="M87.4874 378.16L103.524 380.651L108.662 377.848L91.8464 374.89L87.4874 378.16Z" fill="none" opacity="1" stroke="#182e35" stroke-linecap="round" stroke-linejoin="round" stroke-width="1"/>
<path d="M77.0558 387.035L91.0688 389.059L85.4638 391.394L73.3118 389.556L77.0558 387.035Z" fill="#ffffff" fill-rule="nonzero" opacity="1" stroke="none"/>
<path d="M77.0558 387.035L91.0688 389.059L85.4638 391.394L73.3118 389.556L77.0558 387.035Z" fill="none" opacity="1" stroke="#182e35" stroke-linecap="round" stroke-linejoin="round" stroke-width="1"/>
<path d="M102.123 367.417L235.088 389.37L238.825 385.322L107.312 363.956L102.123 367.417Z" fill="#ffffff" fill-rule="nonzero" opacity="1" stroke="none"/>
<path d="M102.123 367.417L235.088 389.37L238.825 385.322L107.312 363.956L102.123 367.417Z" fill="none" opacity="1" stroke="#182e35" stroke-linecap="round" stroke-linejoin="round" stroke-width="1"/>
<path d="M241.938 385.633L238.201 389.681L258.597 392.795L261.913 388.755L241.938 385.633Z" fill="#ffffff" fill-rule="nonzero" opacity="1" stroke="none"/>
<path d="M241.938 385.633L238.201 389.681L258.597 392.795L261.913 388.755L241.938 385.633Z" fill="none" opacity="1" stroke="#182e35" stroke-linecap="round" stroke-linejoin="round" stroke-width="1"/>
<path d="M133.313 361.555L169.54 367.728L174.513 364.555L137.913 358.555L133.313 361.555Z" fill="#ffffff" fill-rule="nonzero" opacity="1" stroke="none"/>
<path d="M133.313 361.555L169.54 367.728L174.513 364.555L137.913 358.555L133.313 361.555Z" fill="none" opacity="1" stroke="#182e35" stroke-linecap="round" stroke-linejoin="round" stroke-width="1"/>
<path d="M178.713 369.155L216.404 375.513L221.113 371.956L183.913 366.355L178.713 369.155Z" fill="#ffffff" fill-rule="nonzero" opacity="1" stroke="none"/>
<path d="M178.713 369.155L216.404 375.513L221.113 371.956L183.913 366.355L178.713 369.155Z" fill="none" opacity="1" stroke="#182e35" stroke-linecap="round" stroke-linejoin="round" stroke-width="1"/>
<path d="M225.913 377.355L266.227 383.609L269.313 379.355L229.913 373.555L225.913 377.355Z" fill="#ffffff" fill-rule="nonzero" opacity="1" stroke="none"/>
<path d="M225.913 377.355L266.227 383.609L269.313 379.355L229.913 373.555L225.913 377.355Z" fill="none" opacity="1" stroke="#182e35" stroke-linecap="round" stroke-linejoin="round" stroke-width="1"/>
<path d="M300.966 399.037L304.513 394.756L272.713 389.556L268.712 394.075L300.966 399.037Z" fill="#ffffff" fill-rule="nonzero" opacity="1" stroke="none"/>
<path d="M300.966 399.037L304.513 394.756L272.713 389.556L268.712 394.075L300.966 399.037Z" fill="none" opacity="1" stroke="#182e35" stroke-linecap="round" stroke-linejoin="round" stroke-width="1"/>
<path d="M266.592 396.47L261.913 401.755L294.542 406.791L298.773 401.685L266.592 396.47Z" fill="#ffffff" fill-rule="nonzero" opacity="1" stroke="none"/>
<path d="M266.592 396.47L261.913 401.755L294.542 406.791L298.773 401.685L266.592 396.47Z" fill="none" opacity="1" stroke="#182e35" stroke-linecap="round" stroke-linejoin="round" stroke-width="1"/>
<path d="M276.713 385.155L306.313 389.879L311.313 386.155L281.313 381.155L276.713 385.155Z" fill="#ffffff" fill-rule="nonzero" opacity="1" stroke="none"/>
<path d="M276.713 385.155L306.313 389.879L311.313 386.155L281.313 381.155L276.713 385.155Z" fill="none" opacity="1" stroke="#182e35" stroke-linecap="round" stroke-linejoin="round" stroke-width="1"/>
<path d="M355.832 408.008L310.913 400.567L314.913 395.555L359.113 402.555L355.832 408.008Z" fill="#ffffff" fill-rule="nonzero" opacity="1" stroke="none"/>
<path d="M355.832 408.008L310.913 400.567L314.913 395.555L359.113 402.555L355.832 408.008Z" fill="none" opacity="1" stroke="#182e35" stroke-linecap="round" stroke-linejoin="round" stroke-width="1"/>
<path d="M354.073 410.039L309.831 402.598L305.501 407.468L342.437 413.421L338.107 419.51L347.443 421.268L354.073 410.039Z" fill="#ffffff" fill-rule="nonzero" opacity="1" stroke="none"/>
<path d="M354.073 410.039L309.831 402.598L305.501 407.468L342.437 413.421L338.107 419.51L347.443 421.268L354.073 410.039Z" fill="none" opacity="1" stroke="#182e35" stroke-linecap="round" stroke-linejoin="round" stroke-width="1"/>
<path d="M303.472 409.633L337.026 415.045L333.238 420.186L300.089 414.098L303.472 409.633Z" fill="#ffffff" fill-rule="nonzero" opacity="1" stroke="none"/>
<path d="M303.472 409.633L337.026 415.045L333.238 420.186L300.089 414.098L303.472 409.633Z" fill="none" opacity="1" stroke="#182e35" stroke-linecap="round" stroke-linejoin="round" stroke-width="1"/>
<path d="M298.195 416.533L331.883 422.08L328.772 426.138L295.218 420.185L298.195 416.533Z" fill="#ffffff" fill-rule="nonzero" opacity="1" stroke="none"/>
<path d="M298.195 416.533L331.883 422.08L328.772 426.138L295.218 420.185L298.195 416.533Z" fill="none" opacity="1" stroke="#182e35" stroke-linecap="round" stroke-linejoin="round" stroke-width="1"/>
<path d="M336.349 422.08L328.096 434.121L338.913 436.355L345.82 424.109L336.349 422.08Z" fill="#ffffff" fill-rule="nonzero" opacity="1" stroke="none"/>
<path d="M336.349 422.08L328.096 434.121L338.913 436.355L345.82 424.109L336.349 422.08Z" fill="none" opacity="1" stroke="#182e35" stroke-linecap="round" stroke-linejoin="round" stroke-width="1"/>
<path d="M327.284 428.574L322.954 433.716L288.713 427.956L293.46 423.162L327.284 428.574Z" fill="#ffffff" fill-rule="nonzero" opacity="1" stroke="none"/>
<path d="M327.284 428.574L322.954 433.716L288.713 427.956L293.46 423.162L327.284 428.574Z" fill="none" opacity="1" stroke="#182e35" stroke-linecap="round" stroke-linejoin="round" stroke-width="1"/>
</g>
</g>
</g>
</svg>
